nColumns=19
nRows=119
DataType=double
version=3
OpenSimVersion=4.1
endheader
time	ground_force_calcn_r_vx	ground_force_calcn_r_vy	ground_force_calcn_r_vz	ground_force_calcn_r_px	ground_force_calcn_r_py	ground_force_calcn_r_pz	ground_force_calcn_r_mx	ground_force_calcn_r_my	ground_force_calcn_r_mz	ground_force_calcn_l_vx	ground_force_calcn_l_vy	ground_force_calcn_l_vz	ground_force_calcn_l_px	ground_force_calcn_l_py	ground_force_calcn_l_pz	ground_force_calcn_l_mx	ground_force_calcn_l_my	ground_force_calcn_l_mz
0.166667	-11.257	29.7164	-2.66545	1.26773	0	-0.18273	1.18951	-3.14007	0.281652	0	0	0	0	0	0	0	0	0
0.175	-28.5653	72.7098	-6.12333	1.28424	0	-0.22542	1.12042	-2.85189	0.240175	0	0	0	0	0	0	0	0	0
0.183333	-54.6227	142.043	-10.828	1.28967	0	-0.24015	0.89967	-2.33954	0.178344	0	0	0	0	0	0	0	0	0
0.191667	-77.182	224.131	-16.9402	1.28793	0	-0.247286	0.558101	-1.62068	0.122494	0	0	0	0	0	0	0	0	0
0.2	-83.3926	309.535	-24.2472	1.27416	0	-0.252695	0.206116	-0.765055	0.0599302	0	0	0	0	0	0	0	0	0
0.208333	-79.8119	406.528	-31.5003	1.24927	0	-0.25736	-0.0111851	0.056972	-0.00441454	0	0	0	0	0	0	0	0	0
0.216667	-83.7	524.044	-36.5009	1.2246	0	-0.260586	-0.0873885	0.547138	-0.0381094	0	0	0	0	0	0	0	0	0
0.225	-99.295	661.593	-37.2801	1.20506	0	-0.262689	-0.0683796	0.455607	-0.0256729	0	0	0	0	0	0	0	0	0
0.233333	-115.787	815.082	-33.0785	1.18579	0	-0.264892	0.0431874	-0.304018	0.012338	0	0	0	0	0	0	0	0	0
0.241667	-120.295	980.046	-24.0793	1.16312	0	-0.267752	0.199526	-1.62554	0.0399388	0	0	0	0	0	0	0	0	0
0.25	-111.795	1146.34	-11.2929	1.13949	0	-0.270622	0.312354	-3.20285	0.031552	0	0	0	0	0	0	0	0	0
0.258333	-100.781	1295.7	2.21944	1.11855	0	-0.272631	0.356363	-4.5816	-0.00784795	0	0	0	0	0	0	0	0	0
0.266667	-96.079	1410.94	11.0653	1.10124	0	-0.27363	0.361467	-5.30824	-0.0416297	0	0	0	0	0	0	0	0	0
0.275	-96.1108	1487.42	10.7598	1.08662	0	-0.27405	0.329113	-5.09337	-0.036845	0	0	0	0	0	0	0	0	0
0.283333	-94.3876	1532.15	1.87077	1.07328	0	-0.274161	0.240629	-3.90602	-0.00476928	0	0	0	0	0	0	0	0	0
0.291667	-87.5595	1554.48	-10.3591	1.06038	0	-0.2738	0.111051	-1.97153	0.0131383	0	0	0	0	0	0	0	0	0
0.3	-75.9347	1560.08	-21.0755	1.04763	0	-0.272877	-0.0152877	0.314086	-0.00424307	0	0	0	0	0	0	0	0	0
0.308333	-59.7477	1549.24	-29.3983	1.03491	0	-0.271775	-0.0966904	2.50716	-0.0475757	0	0	0	0	0	0	0	0	0
0.316667	-39.7476	1518.97	-36.525	1.02238	0	-0.271048	-0.110498	4.22274	-0.10154	0	0	0	0	0	0	0	0	0
0.325	-17.9421	1468.63	-41.9631	1.01033	0	-0.270798	-0.0635645	5.20299	-0.148665	0	0	0	0	0	0	0	0	0
0.333333	4.24621	1402.36	-43.4405	0.998651	0	-0.270703	0.0162124	5.35436	-0.16586	0	0	0	0	0	0	0	0	0
0.341667	27.6547	1324.99	-40.0412	0.986581	0	-0.270638	0.0991686	4.75137	-0.143586	0	0	0	0	0	0	0	0	0
0.35	52.1435	1236.7	-33.5669	0.973717	0	-0.270952	0.151916	3.60301	-0.0977944	0	0	0	0	0	0	0	0	0
0.358333	74.2208	1135.25	-26.3261	0.96068	0	-0.271986	0.143282	2.19158	-0.0508219	0	0	0	0	0	0	0	0	0
0.366667	90.2673	1022.9	-18.9284	0.94828	0	-0.273568	0.0706764	0.800896	-0.0148204	0	0	0	0	0	0	0	0	0
0.375	100.122	906.058	-11.0524	0.936352	0	-0.275241	-0.0377279	-0.341419	0.00416473	0	0	0	0	0	0	0	0	0
0.383333	105.458	789.133	-3.33916	0.923997	0	-0.276779	-0.145999	-1.0925	0.00462283	0	0	0	0	0	0	0	0	0
0.391667	106.133	673.656	2.63249	0.911149	0	-0.278309	-0.221225	-1.40418	-0.0054872	0	0	0	0	0	0	0	0	0
0.4	101.206	561.758	5.98391	0.898673	0	-0.279954	-0.237866	-1.32031	-0.014064	0	0	0	0	0	0	0	0	0
0.408333	91.8508	457.354	7.32285	0.887203	0	-0.281497	-0.191419	-0.953136	-0.015261	0	0	0	0	0	0	0	0	0
0.416667	80.0471	364.537	7.79262	0.876585	0	-0.282342	-0.098213	-0.447265	-0.00956108	0	0	0	0	0	0	0	0	0
0.425	66.7844	285.137	7.81971	0.867172	0	-0.281945	0.0132666	0.0566421	0.00155337	0	0	0	0	0	0	0	0	0
0.433333	53.0724	218.036	7.09623	0.860405	0	-0.280349	0.109333	0.449171	0.0146188	0	0	0	0	0	0	0	0	0
0.441667	40.886	161.656	5.54726	0.856981	0	-0.27803	0.166979	0.660204	0.0226551	0	0	0	0	0	0	0	0	0
0.45	31.7167	115.685	3.83844	0.85598	0	-0.274684	0.180835	0.659583	0.0218851	0	0	0	0	0	0	0	0	0
0.458333	25.1869	80.0105	2.78491	0.855787	0	-0.268516	0.146536	0.465495	0.0162024	0	0	0	0	0	0	0	0	0
0.466667	19.785	53.5768	2.52765	0.856389	0	-0.257761	0.0543108	0.147071	0.0069385	0	0	0	0	0	0	0	0	0
0.475	14.6315	34.4405	2.54005	0.862962	0	-0.244052	-0.0854941	-0.201242	-0.0148419	0	0	0	0	0	0	0	0	0
0.483333	0	0	0	0	0	0	0	0	0	0	0	0	0	0	0	0	0	0
0.491667	0	0	0	0	0	0	0	0	0	0	0	0	0	0	0	0	0	0
0.5	0	0	0	0	0	0	0	0	0	0	0	0	0	0	0	0	0	0
0.508333	0	0	0	0	0	0	0	0	0	0	0	0	0	0	0	0	0	0
0.516667	0	0	0	0	0	0	0	0	0	0	0	0	0	0	0	0	0	0
0.525	0	0	0	0	0	0	0	0	0	0	0	0	0	0	0	0	0	0
0.533333	0	0	0	0	0	0	0	0	0	0	0	0	0	0	0	0	0	0
0.541667	0	0	0	0	0	0	0	0	0	0	0	0	0	0	0	0	0	0
0.55	0	0	0	0	0	0	0	0	0	-9.7831	27.811	-3.87296	1.21586	0	-0.359118	-0.496749	1.41214	-0.196654
0.558333	0	0	0	0	0	0	0	0	0	-23.7565	71.3527	-3.79918	1.2251	0	-0.364954	-0.549557	1.6506	-0.0878861
0.566667	0	0	0	0	0	0	0	0	0	-44.04	144.88	-0.94714	1.22869	0	-0.363633	-0.509425	1.67588	-0.0109559
0.575	0	0	0	0	0	0	0	0	0	-60.8107	239.408	5.02298	1.22297	0	-0.360672	-0.392912	1.54687	0.0324546
0.583333	0	0	0	0	0	0	0	0	0	-63.9677	348.415	12.0371	1.20503	0	-0.359052	-0.25211	1.37318	0.0474408
0.591667	0	0	0	0	0	0	0	0	0	-59.8128	477.17	17.6183	1.1798	0	-0.359429	-0.163683	1.30581	0.0482139
0.6	0	0	0	0	0	0	0	0	0	-64.059	629.528	21.6798	1.1579	0	-0.360268	-0.154154	1.51492	0.0521711
0.608333	0	0	0	0	0	0	0	0	0	-78.4011	801.49	25.409	1.14125	0	-0.359795	-0.206273	2.10872	0.0668509
0.616667	0	0	0	0	0	0	0	0	0	-90.1983	981.604	27.5658	1.12483	0	-0.358079	-0.282932	3.07908	0.0864679
0.625	0	0	0	0	0	0	0	0	0	-88.7299	1153.1	24.615	1.10614	0	-0.356266	-0.328806	4.27305	0.0912158
0.633333	0	0	0	0	0	0	0	0	0	-75.9621	1300.79	15.9246	1.08702	0	-0.355183	-0.314859	5.3917	0.0660069
0.641667	0	0	0	0	0	0	0	0	0	-64.0087	1414.76	7.07459	1.07005	0	-0.354823	-0.274636	6.07016	0.0303542
0.65	0	0	0	0	0	0	0	0	0	-60.6536	1493.44	5.63119	1.05568	0	-0.354624	-0.244943	6.03109	0.022741
0.658333	0	0	0	0	0	0	0	0	0	-62.7409	1543.24	13.5492	1.04264	0	-0.354256	-0.212034	5.21542	0.0457899
0.666667	0	0	0	0	0	0	0	0	0	-61.0728	1570.98	25.353	1.02949	0	-0.353972	-0.148384	3.81689	0.0615985
0.675	0	0	0	0	0	0	0	0	0	-50.444	1578.91	34.107	1.01583	0	-0.354124	-0.0703915	2.20327	0.0475942
0.683333	0	0	0	0	0	0	0	0	0	-33.2586	1567.23	37.6246	1.00209	0	-0.354519	-0.0165452	0.779657	0.0187172
0.691667	0	0	0	0	0	0	0	0	0	-13.729	1537.71	38.0225	0.988637	0	-0.354458	0.00115392	-0.129244	-0.00319577
0.7	0	0	0	0	0	0	0	0	0	6.79552	1491.9	36.8263	0.97549	0	-0.353601	-0.00157801	-0.346438	-0.00855155
0.708333	0	0	0	0	0	0	0	0	0	29.1917	1428.81	32.802	0.96233	0	-0.352353	0.00277936	0.136038	0.0031231
0.716667	0	0	0	0	0	0	0	0	0	52.6201	1347.45	24.6275	0.949017	0	-0.351144	0.0456321	1.16851	0.0213569
0.725	0	0	0	0	0	0	0	0	0	73.5379	1250.13	13.6902	0.935926	0	-0.349802	0.146196	2.4853	0.0272167
0.733333	0	0	0	0	0	0	0	0	0	89.9783	1141.6	3.06102	0.923295	0	-0.347793	0.297596	3.77575	0.0101241
0.741667	0	0	0	0	0	0	0	0	0	102.057	1026.08	-5.48814	0.910915	0	-0.344989	0.473774	4.76334	-0.0254774
0.75	0	0	0	0	0	0	0	0	0	110.307	906.373	-12.3258	0.898515	0	-0.34193	0.640446	5.26243	-0.0715637
0.758333	0	0	0	0	0	0	0	0	0	114.407	784.915	-18.1037	0.886066	0	-0.339265	0.758003	5.20046	-0.119946
0.766667	0	0	0	0	0	0	0	0	0	114.033	665.856	-22.1832	0.873668	0	-0.337118	0.789977	4.61279	-0.153677
0.775	0	0	0	0	0	0	0	0	0	109.735	554.912	-23.3941	0.861261	0	-0.33494	0.716291	3.62216	-0.152704
0.783333	0	0	0	0	0	0	0	0	0	101.55	455.162	-21.8487	0.849168	0	-0.33234	0.537312	2.40831	-0.115604
0.791667	0	0	0	0	0	0	0	0	0	89.4049	366.405	-19.2487	0.838525	0	-0.329947	0.283675	1.16258	-0.0610747
0.8	0	0	0	0	0	0	0	0	0	74.6959	288.29	-17.2039	0.829969	0	-0.328868	0.0114487	0.0441863	-0.00263685
0.808333	0	0	0	0	0	0	0	0	0	59.8709	221.429	-15.7244	0.822497	0	-0.329049	-0.226767	-0.838682	0.0595577
0.816667	0	0	0	0	0	0	0	0	0	46.9243	165.831	-13.7595	0.814922	0	-0.328805	-0.403873	-1.42729	0.118427
0.825	0	0	0	0	0	0	0	0	0	36.5729	120.259	-10.8961	0.808278	0	-0.326559	-0.518007	-1.70331	0.154328
0.833333	0	0	0	0	0	0	0	0	0	28.6471	83.5065	-7.95584	0.804812	0	-0.322757	-0.576558	-1.68067	0.160121
0.841667	0	0	0	0	0	0	0	0	0	22.4863	55.2889	-5.93554	0.804662	0	-0.318914	-0.574294	-1.41206	0.151592
0.85	0	0	0	0	0	0	0	0	0	17.4806	35.3441	-4.88763	0.804655	0	-0.313697	-0.495437	-1.00172	0.138526
0.858333	0	0	0	0	0	0	0	0	0	0	0	0	0	0	0	0	0	0
0.866667	0	0	0	0	0	0	0	0	0	0	0	0	0	0	0	0	0	0
0.875	0	0	0	0	0	0	0	0	0	0	0	0	0	0	0	0	0	0
0.883333	0	0	0	0	0	0	0	0	0	0	0	0	0	0	0	0	0	0
0.891667	0	0	0	0	0	0	0	0	0	0	0	0	0	0	0	0	0	0
0.9	0	0	0	0	0	0	0	0	0	0	0	0	0	0	0	0	0	0
0.908333	0	0	0	0	0	0	0	0	0	0	0	0	0	0	0	0	0	0
0.916667	0	0	0	0	0	0	0	0	0	0	0	0	0	0	0	0	0	0
0.925	-8.18629	34.2914	-2.31517	1.22206	0	-0.278715	0.408945	-1.71302	0.115654	0	0	0	0	0	0	0	0	0
0.933333	-21.788	83.3267	-3.74024	1.22913	0	-0.293302	0.414034	-1.58344	0.0710751	0	0	0	0	0	0	0	0	0
0.941667	-42.5098	158.876	-5.67724	1.23171	0	-0.302236	0.306144	-1.14418	0.040886	0	0	0	0	0	0	0	0	0
0.95	-59.0432	249.35	-8.41633	1.22726	0	-0.308211	0.111203	-0.469632	0.0158515	0	0	0	0	0	0	0	0	0
0.958333	-59.759	349.139	-12.0175	1.21097	0	-0.313131	-0.050612	0.295698	-0.0101781	0	0	0	0	0	0	0	0	0
0.966667	-52.018	463.745	-15.3073	1.18678	0	-0.31756	-0.100128	0.892646	-0.0294644	0	0	0	0	0	0	0	0	0
0.975	-52.7248	595.57	-15.6864	1.16507	0	-0.321045	-0.0906684	1.02417	-0.0269752	0	0	0	0	0	0	0	0	0
0.983333	-66.1265	738.714	-10.7482	1.14851	0	-0.323698	-0.0460808	0.514779	-0.00749001	0	0	0	0	0	0	0	0	0
0.991667	-81.7802	883.417	-0.0643979	1.13239	0	-0.326389	0.0570072	-0.615811	4.48904e-05	0	0	0	0	0	0	0	0	0
1	-89.3167	1021.14	14.7349	1.11388	0	-0.329433	0.187359	-2.14204	-0.0309093	0	0	0	0	0	0	0	0	0
1.00833	-89.3317	1146.66	30.7779	1.09493	0	-0.33216	0.286492	-3.67742	-0.0987065	0	0	0	0	0	0	0	0	0
1.01667	-88.2927	1257.53	44.3391	1.07776	0	-0.333905	0.335654	-4.78066	-0.16856	0	0	0	0	0	0	0	0	0
1.025	-87.3956	1351.72	51.6821	1.06224	0	-0.334726	0.329941	-5.1031	-0.195113	0	0	0	0	0	0	0	0	0
1.03333	-82.007	1427.47	51.2436	1.0471	0	-0.335097	0.258733	-4.5037	-0.161674	0	0	0	0	0	0	0	0	0
1.04167	-69.8847	1484.48	45.1561	1.03182	0	-0.33522	0.145313	-3.08672	-0.0938946	0	0	0	0	0	0	0	0	0
1.05	-53.3568	1523.29	37.615	1.01687	0	-0.334904	0.0407997	-1.1648	-0.0287626	0	0	0	0	0	0	0	0	0
1.05833	-35.0662	1543.53	31.4035	1.00263	0	-0.334102	-0.0190071	0.836647	0.0170218	0	0	0	0	0	0	0	0	0
1.06667	-15.2869	1543.48	26.6038	0.988943	0	-0.333237	-0.0247132	2.49523	0.0430084	0	0	0	0	0	0	0	0	0
1.075	5.77417	1522.03	22.686	0.975666	0	-0.332828	0.013215	3.48339	0.0519202	0	0	0	0	0	0	0	0	0
1.08333	27.5112	1481.45	20.6074	0.962685	0	-0.332878	0.067304	3.62427	0.0504144	0	0	0	0	0	0	0	0	0
1.09167	49.6226	1426.39	21.9061	0.949673	0	-0.332996	0.101473	2.91682	0.0447957	0	0	0	0	0	0	0	0	0
1.1	71.7816	1359.24	26.4364	0.936411	0	-0.333107	0.0806793	1.52773	0.0297133	0	0	0	0	0	0	0	0	0
1.10833	92.5333	1278.54	32.2185	0.923225	0	-0.333607	-0.0183513	-0.253561	-0.00638961	0	0	0	0	0	0	0	0	0
1.11667	110.065	1183.12	37.4475	0.910448	0	-0.334762	-0.194187	-2.08738	-0.0660686	0	0	0	0	0	0	0	0	0
1.125	123.197	1076.04	41.6725	0.89807	0	-0.336294	-0.418881	-3.65863	-0.14169	0	0	0	0	0	0	0	0	0
1.13333	131.598	962.248	44.8413	0.88592	0	-0.337646	-0.647156	-4.73202	-0.220515	0	0	0	0	0	0	0	0	0
1.14167	134.915	844.961	46.1092	0.87379	0	-0.338531	-0.827747	-5.18412	-0.282895	0	0	0	0	0	0	0	0	0
1.15	133.03	726.226	44.3301	0.861643	0	-0.339172	-0.918393	-5.0136	-0.306039	0	0	0	0	0	0	0	0	0
